# Blender v2.79 (sub 0) OBJ File: 'fish.blend'
# www.blender.org
mtllib fish_tail.mtl
o tail_Plane.002
v -3.682008 0.082923 0.143659
v -3.682008 0.059940 -0.136677
v -3.269041 0.052538 0.383770
v -3.682008 0.052538 0.447545
v -3.981432 0.059940 -0.181624
v -3.981432 0.052538 0.491401
v -3.682008 -0.082923 0.143659
v -3.682008 -0.059940 -0.136677
v -3.269041 -0.052538 0.383770
v -3.682008 -0.052538 0.447545
v -3.981432 -0.059940 -0.181624
v -3.981432 -0.052538 0.491401
v -3.269041 -0.082923 0.144354
v -3.981432 -0.082923 0.141323
v -4.667214 0.000000 0.554917
v -4.813338 0.000000 0.000670
v -3.269041 -0.059940 -0.076508
v -3.269041 0.000000 -0.273907
v -5.144636 0.000000 0.286682
v -3.269041 0.082923 0.144354
v -3.981432 0.082923 0.141323
v -4.419578 0.000000 0.434570
v -3.269041 0.000000 0.532196
v -3.682008 0.000000 0.635937
v -3.682008 0.000000 -0.387230
v -3.981432 0.000000 0.708430
v -3.981432 0.000000 -0.470263
v -4.833849 0.000000 0.633605
v -4.278940 0.000000 -0.460681
v -3.269041 0.059940 -0.076508
v -4.876117 0.000000 0.463508
v -4.991467 0.000000 0.436630
v -4.716943 0.000000 0.460069
v -4.576955 0.000000 0.666007
v -4.394119 0.000000 0.524830
v -4.086309 0.000000 0.707665
v -4.440407 0.000000 0.716923
v -2.905415 0.000000 0.461350
v -2.905415 0.052538 0.339014
v -2.905415 -0.052538 0.339014
v -2.905415 0.000000 -0.203062
v -2.905415 -0.059940 -0.040360
v -2.905415 -0.082923 0.141681
v -2.905415 0.082923 0.141681
v -2.905415 0.059940 -0.040360
v -2.905415 0.017513 0.339014
v -2.905415 -0.017513 0.339014
v -2.905415 0.027641 0.141681
v -2.905415 -0.027641 0.141681
v -2.905415 0.019980 -0.040360
v -2.905415 -0.019980 -0.040360
v -2.599908 0.017513 0.339014
v -2.599908 -0.017513 0.339014
v -2.599908 0.019980 -0.040360
v -2.599908 -0.019980 -0.040360
v -2.599908 0.027641 0.141680
v -2.599908 -0.027641 0.141680
vt 0.192019 0.516318
vt 0.192019 0.574278
vt 0.154118 0.607552
vt 0.154118 0.533984
vt 0.126637 0.631932
vt 0.126637 0.547182
vt 0.126637 0.349569
vt 0.126637 0.452358
vt 0.086425 0.366255
vt 0.154118 0.362446
vt 0.154118 0.451673
vt 0.192019 0.381171
vt 0.192019 0.451468
vt 0.059134 0.358768
vt 0.044525 0.357759
vt 0.192019 0.337591
vt 0.154118 0.307130
vt 0.126637 0.285845
vt 0.019881 0.409678
vt 0.050287 0.493657
vt 0.192019 0.516318
vt 0.154118 0.533984
vt 0.126637 0.547182
vt 0.154118 0.362446
vt 0.126637 0.349569
vt 0.126637 0.452358
vt 0.154118 0.451673
vt 0.192019 0.381171
vt 0.192019 0.451468
vt 0.033939 0.365650
vt 0.117012 0.286069
vt 0.099333 0.629119
vt 0.225392 0.358392
vt 0.225392 0.394312
vt 0.225392 0.452253
vt 0.225392 0.505704
vt 0.225392 0.553476
vt 0.225392 0.394312
vt 0.225392 0.452253
vt 0.225392 0.505704
vt 0.225392 0.394312
vt 0.225392 0.394312
vt 0.225392 0.452253
vt 0.225392 0.505704
vt 0.225392 0.505704
vt 0.225392 0.452253
vt 0.225392 0.394312
vt 0.225392 0.452253
vt 0.225392 0.452253
vt 0.225392 0.505704
vt 0.225392 0.505704
vt 0.225392 0.394312
vt 0.088762 0.339753
vt 0.071982 0.298301
vt 0.084514 0.283351
vt 0.048404 0.307815
vt 0.063698 0.330919
vn 0.0542 0.9646 -0.2581
vn 0.0463 0.9751 -0.2168
vn -0.1296 0.9879 0.0857
vn 0.0064 0.9957 0.0925
vn 0.0085 0.9938 0.1112
vn 0.0057 0.9645 0.2641
vn 0.0060 0.9971 -0.0760
vn 0.0067 0.9958 -0.0913
vn 0.0603 0.9529 0.2973
vn 0.0487 0.9669 0.2506
vn -0.0848 0.9929 -0.0836
vn 0.0542 -0.9646 -0.2581
vn 0.0463 -0.9751 -0.2168
vn 0.0264 0.9509 0.3084
vn 0.0064 -0.9957 0.0925
vn 0.0085 -0.9938 0.1112
vn -0.0566 0.9947 0.0859
vn 0.0060 -0.9971 -0.0760
vn 0.0067 -0.9958 -0.0913
vn 0.0603 -0.9529 0.2973
vn 0.0487 -0.9669 0.2506
vn -0.0017 -0.9719 0.2353
vn -0.0749 0.9884 -0.1324
vn -0.1296 -0.9879 0.0857
vn 0.0057 -0.9645 0.2641
vn -0.0848 -0.9929 -0.0836
vn 0.0264 -0.9509 0.3084
vn -0.0566 -0.9947 0.0859
vn -0.0749 -0.9884 -0.1324
vn 0.0574 0.9307 0.3612
vn 0.0090 0.9904 0.1378
vn 0.0052 0.9935 -0.1134
vn 0.0464 0.9478 -0.3155
vn 0.0574 -0.9307 0.3612
vn 0.0090 -0.9904 0.1378
vn 0.0052 -0.9935 -0.1134
vn 0.0464 -0.9478 -0.3155
vn 1.0000 0.0000 0.0000
vn 0.0000 0.9987 0.0513
vn -0.0000 0.9991 -0.0420
vn 0.0000 -0.9987 0.0513
vn -0.0000 -0.9991 -0.0420
vn -0.0000 0.0000 -1.0000
vn 0.0000 0.0000 1.0000
vn -0.1234 0.9917 0.0348
vn -0.1094 0.9768 0.1842
vn -0.0017 0.9719 0.2353
vn 0.0000 -1.0000 0.0000
vn -0.1234 -0.9917 0.0348
vn -0.1094 -0.9768 0.1842
vn 0.0000 1.0000 0.0000
usemtl fish
s off
f 30/1/1 18/2/1 25/3/1 2/4/1
f 2/4/2 25/3/2 27/5/2 5/6/2
f 6/7/3 21/8/3 22/9/3
f 4/10/4 1/11/4 21/8/4 6/7/4
f 3/12/5 20/13/5 1/11/5 4/10/5
f 33/14/6 21/8/6 31/15/6
f 1/11/7 2/4/7 5/6/7 21/8/7
f 20/13/8 30/1/8 2/4/8 1/11/8
f 23/16/9 3/12/9 4/10/9 24/17/9
f 24/17/10 4/10/10 6/7/10 26/18/10
f 19/19/11 21/8/11 5/6/11 16/20/11
f 17/21/12 8/22/12 25/3/12 18/2/12
f 8/22/13 11/23/13 27/5/13 25/3/13
f 33/14/14 22/9/14 21/8/14
f 10/24/15 12/25/15 14/26/15 7/27/15
f 9/28/16 10/24/16 7/27/16 13/29/16
f 32/30/17 31/15/17 21/8/17 19/19/17
f 7/27/18 14/26/18 11/23/18 8/22/18
f 13/29/19 7/27/19 8/22/19 17/21/19
f 23/16/20 24/17/20 10/24/20 9/28/20
f 24/17/21 26/18/21 12/25/21 10/24/21
f 26/18/22 36/31/22 12/25/22
f 29/32/23 16/20/23 5/6/23 27/5/23
f 12/25/24 22/9/24 14/26/24
f 33/14/25 31/15/25 14/26/25
f 19/19/26 16/20/26 11/23/26 14/26/26
f 33/14/27 14/26/27 22/9/27
f 32/30/28 19/19/28 14/26/28 31/15/28
f 29/32/29 27/5/29 11/23/29 16/20/29
f 3/12/30 23/16/30 38/33/30 39/34/30
f 3/12/31 39/34/31 44/35/31 20/13/31
f 30/1/32 20/13/32 44/35/32 45/36/32
f 18/2/33 30/1/33 45/36/33 41/37/33
f 9/28/34 40/38/34 38/33/34 23/16/34
f 9/28/35 13/29/35 43/39/35 40/38/35
f 17/21/36 42/40/36 43/39/36 13/29/36
f 18/2/37 41/37/37 42/40/37 17/21/37
f 39/34/38 38/33/38 40/38/38 47/41/38 46/42/38
f 49/43/38 47/41/38 40/38/38 43/39/38
f 45/36/38 50/44/38 51/45/38 42/40/38 41/37/38
f 49/43/38 43/39/38 42/40/38 51/45/38
f 44/35/38 48/46/38 50/44/38 45/36/38
f 44/35/38 39/34/38 46/42/38 48/46/38
f 48/46/39 46/42/39 52/47/39 56/48/39
f 57/49/38 55/50/38 54/51/38 56/48/38 52/47/38 53/52/38
f 50/44/40 48/46/40 56/48/40 54/51/40
f 47/41/41 49/43/41 57/49/41 53/52/41
f 49/43/42 51/45/42 55/50/42 57/49/42
f 51/45/43 50/44/43 54/51/43 55/50/43
f 46/42/44 47/41/44 53/52/44 52/47/44
usemtl fish_NONE
f 22/9/45 35/53/45 6/7/45
f 36/31/46 6/7/46 35/53/46
f 36/31/47 26/18/47 6/7/47
f 34/54/48 35/53/48 37/55/48
f 36/31/48 37/55/48 35/53/48
f 35/53/48 28/56/48 22/9/48
f 22/9/49 12/25/49 35/53/49
f 36/31/50 35/53/50 12/25/50
f 22/9/51 28/56/51 15/57/51
