# Blender v2.79 (sub 0) OBJ File: ''
# www.blender.org
mtllib HeadFix.mtl
o head_Plane.001
v 0.226970 -0.042007 0.011182
v 0.215952 -0.036254 0.033751
v 0.225526 -0.049539 0.011182
v 0.215952 -0.036254 -0.011387
v -0.001694 -0.085670 -0.039718
v 0.083823 -0.073020 -0.039718
v 0.083823 -0.121638 0.011182
v -0.084237 -0.163136 0.011182
v -0.084237 -0.099421 -0.039718
v -0.084237 0.004002 -0.069155
v 0.139490 -0.007637 -0.069155
v 0.139490 -0.031297 -0.062361
v 0.083823 -0.038955 -0.062361
v -0.001695 -0.041456 -0.062361
v -0.084237 -0.045247 -0.062361
v 0.139490 0.016692 0.086321
v 0.139490 -0.007637 0.091519
v 0.200848 -0.009456 0.046589
v 0.182542 0.005916 0.048940
v -0.084237 0.053585 -0.063957
v -0.001694 0.039980 -0.063957
v 0.083823 0.023655 -0.063877
v 0.139490 0.016692 -0.063957
v -0.001694 0.148237 0.011182
v -0.001694 0.077360 0.069252
v 0.083823 0.052335 0.069113
v 0.083823 0.110690 0.011182
v 0.139490 0.086496 0.011182
v 0.139490 0.038743 0.069252
v 0.175962 0.028074 0.040363
v 0.175962 0.064092 0.011182
v 0.083823 -0.038955 0.084725
v 0.083823 -0.073020 0.062082
v 0.139490 -0.057324 0.062082
v 0.139490 -0.031297 0.084725
v -0.001695 -0.041456 0.084725
v -0.001694 -0.085670 0.062082
v -0.084237 -0.045247 0.084725
v -0.084237 -0.099421 0.062082
v 0.200302 -0.062056 0.011182
v 0.200302 0.049708 0.011182
v 0.212577 0.033251 0.011182
v 0.176374 -0.032601 0.036759
v 0.175962 -0.077339 0.011182
v -0.084237 0.053585 0.086321
v -0.084237 0.004001 0.091519
v 0.083823 0.023655 0.086241
v -0.001694 0.039980 0.086321
v 0.139490 0.038743 -0.046889
v 0.139490 -0.057324 -0.039718
v 0.139490 -0.098104 0.011182
v 0.182542 0.005916 -0.026576
v 0.200848 -0.009455 -0.024226
v -0.084237 0.182950 0.011182
v -0.001694 0.077360 -0.046889
v -0.084237 0.098525 -0.046889
v 0.083823 0.052335 -0.046750
v 0.175962 0.028074 -0.017999
v 0.176374 -0.032601 -0.014396
v -0.084237 0.098525 0.069252
vt 0.964849 0.423766
vt 0.958262 0.432524
vt 0.961776 0.429190
vt 0.964442 0.414452
vt 0.954298 0.556878
vt 0.943023 0.490297
vt 0.942846 0.522938
vt 0.943906 0.580354
vt 0.906562 0.640857
vt 0.928513 0.602862
vt 0.927938 0.536615
vt 0.906821 0.559273
vt 0.955805 0.397694
vt 0.874443 0.377525
vt 0.907040 0.391972
vt 0.906874 0.327184
vt 0.839816 0.271534
vt 0.842980 0.361820
vt 0.845068 0.489934
vt 0.927626 0.469932
vt 0.927789 0.440787
vt 0.907108 0.432263
vt 0.875338 0.429479
vt 0.844673 0.425259
vt 0.931302 0.506177
vt 0.931531 0.465741
vt 0.947179 0.470337
vt 0.944605 0.491457
vt 0.844529 0.561662
vt 0.875193 0.541125
vt 0.906971 0.516351
vt 0.927665 0.503564
vt 0.871544 0.682866
vt 0.869079 0.606753
vt 0.906398 0.568749
vt 0.930729 0.543603
vt 0.945310 0.525171
vt 0.906594 0.421769
vt 0.906686 0.379583
vt 0.930718 0.399886
vt 0.931357 0.431976
vt 0.868554 0.418436
vt 0.869768 0.363220
vt 0.831837 0.413383
vt 0.834133 0.345433
vt 0.961177 0.519977
vt 0.831377 0.575104
vt 0.830991 0.492095
vt 0.906436 0.520753
vt 0.868233 0.550827
vt 0.928259 0.409899
vt 0.929412 0.355733
vt 0.944347 0.380755
vt 0.945410 0.433601
vt 0.943307 0.473591
vt 0.838519 0.732055
vt 0.874428 0.594007
vt 0.843213 0.618892
vt 0.943288 0.436721
vt 0.833108 0.634407
vn 0.4628 0.8864 0.0000
vn 0.8687 -0.1665 -0.4665
vn 0.4181 0.5274 -0.7397
vn 0.8687 -0.1665 0.4665
vn 0.2422 0.7159 -0.6548
vn 0.3614 -0.7284 -0.5821
vn 0.1339 -0.6629 -0.7366
vn 0.0009 -0.1747 -0.9846
vn 0.6083 0.3322 0.7208
vn 0.0155 0.1426 -0.9897
vn 0.2379 0.6488 0.7228
vn 0.5153 0.6182 0.5935
vn 0.1253 -0.5971 0.7923
vn 0.0443 -0.5003 0.8647
vn 0.0444 -0.4177 0.9075
vn 0.5173 0.4430 0.7322
vn 0.1339 -0.6629 0.7366
vn 0.0155 0.1426 0.9897
vn 0.2559 -0.7264 -0.6379
vn 0.5876 -0.5316 0.6100
vn 0.6083 0.3322 -0.7208
vn 0.1987 0.5870 -0.7849
vn 0.2379 0.6488 -0.7228
vn 0.1253 -0.5971 -0.7923
vn 0.0443 -0.5003 -0.8647
vn 0.0444 -0.4177 -0.9075
vn 0.4181 0.5274 0.7397
vn -0.8113 -0.5847 0.0000
vn 0.1433 -0.5800 -0.8019
vn 0.9678 0.2518 -0.0000
vn 0.5876 -0.5316 -0.6100
vn 0.5154 0.6182 -0.5935
vn 0.2559 -0.7264 0.6379
vn 0.1987 0.5870 0.7849
vn 0.5173 0.4430 -0.7322
vn 0.9643 -0.2648 -0.0000
vn 0.0009 -0.1747 0.9846
vn 0.0804 0.3818 0.9207
vn 0.0804 0.3818 -0.9207
vn 0.1116 0.4568 -0.8825
vn 0.1010 0.5561 -0.8250
vn 0.6393 0.4548 -0.6200
vn 0.1116 0.4568 0.8825
vn 0.1010 0.5561 0.8250
vn 0.6393 0.4548 0.6200
vn -1.0000 0.0000 0.0000
vn 0.3614 -0.7284 0.5821
vn 0.1433 -0.5800 0.8019
vn 0.2422 0.7159 0.6549
usemtl fish_NONE.001
s off
f 1/1/1 4/2/1 2/3/1
f 1/1/2 3/4/2 4/2/2
f 41/5/3 52/6/3 58/7/3 31/8/3
f 1/1/4 2/3/4 3/4/4
f 27/9/5 28/10/5 49/11/5 57/12/5
usemtl fish_NONE.001_NONE
f 4/2/6 3/4/6 40/13/6
usemtl fish.001
f 5/14/7 6/15/7 7/16/7 8/17/7 9/18/7
f 10/19/8 11/20/8 12/21/8 13/22/8 14/23/8 15/24/8
f 16/25/9 17/26/9 18/27/9 19/28/9
f 20/29/10 21/30/10 22/31/10 23/32/10 11/20/10 10/19/10
f 24/33/11 25/34/11 26/35/11 27/9/11
f 28/10/12 29/36/12 30/37/12 31/8/12
f 32/38/13 33/39/13 34/40/13 35/41/13
f 36/42/14 37/43/14 33/39/14 32/38/14
f 38/44/15 39/45/15 37/43/15 36/42/15
f 41/5/16 19/28/16 18/27/16 42/46/16
f 7/16/17 33/39/17 37/43/17 39/45/17 8/17/17
f 45/47/18 46/48/18 17/26/18 16/25/18 47/49/18 48/50/18
f 6/15/19 50/51/19 51/52/19 7/16/19
f 17/26/20 35/41/20 34/40/20 51/52/20 44/53/20 43/54/20 18/27/20
f 23/32/21 52/6/21 53/55/21 11/20/21
f 54/56/22 24/33/22 55/57/22 56/58/22
f 24/33/23 27/9/23 57/12/23 55/57/23
f 13/22/24 12/21/24 50/51/24 6/15/24
f 14/23/25 13/22/25 6/15/25 5/14/25
f 15/24/26 14/23/26 5/14/26 9/18/26
f 41/5/27 31/8/27 30/37/27 19/28/27
f 2/3/28 4/2/28 3/4/28
f 44/53/29 59/59/29 4/2/29 40/13/29
f 53/55/30 18/27/30 43/54/30 2/3/30 4/2/30 59/59/30
f 11/20/31 53/55/31 59/59/31 44/53/31 51/52/31 50/51/31 12/21/31
f 28/10/32 31/8/32 58/7/32 49/11/32
f 33/39/33 7/16/33 51/52/33 34/40/33
f 54/56/34 60/60/34 25/34/34 24/33/34
f 41/5/35 42/46/35 53/55/35 52/6/35
f 42/46/36 18/27/36 53/55/36
f 36/42/37 32/38/37 35/41/37 17/26/37 46/48/37 38/44/37
f 60/60/38 45/47/38 48/50/38 25/34/38
f 56/58/39 55/57/39 21/30/39 20/29/39
f 55/57/40 57/12/40 22/31/40 21/30/40
f 57/12/41 49/11/41 23/32/41 22/31/41
f 49/11/42 58/7/42 52/6/42 23/32/42
f 25/34/43 48/50/43 47/49/43 26/35/43
f 26/35/44 47/49/44 16/25/44 29/36/44
f 29/36/45 16/25/45 19/28/45 30/37/45
f 56/58/46 60/60/46 54/56/46
f 9/18/46 8/17/46 39/45/46
f 56/58/46 20/29/46 45/47/46 60/60/46
f 10/19/46 46/48/46 45/47/46 20/29/46
f 38/44/46 46/48/46 10/19/46 15/24/46
f 9/18/46 39/45/46 38/44/46 15/24/46
f 2/3/47 40/13/47 3/4/47
f 2/3/48 43/54/48 44/53/48 40/13/48
f 29/36/49 28/10/49 27/9/49 26/35/49
