# Blender v2.79 (sub 0) OBJ File: ''
# www.blender.org
mtllib TailFix.mtl
o tail_Plane.002
v -0.721963 0.074196 0.000000
v -0.717661 0.089447 0.000000
v -0.647933 0.083798 -0.008876
v -0.665653 0.120339 0.000000
v -0.647933 0.120467 0.000000
v -0.748553 0.113300 0.000000
v -0.725481 0.121903 0.000000
v -0.791957 0.107826 0.000000
v -0.647933 0.083798 0.008876
v -0.763803 0.094530 0.000000
v -0.527566 -0.012156 -0.010128
v -0.527566 -0.045509 -0.000000
v -0.597342 -0.064656 -0.000000
v -0.597342 -0.022323 -0.010128
v -0.647933 -0.078686 -0.000000
v -0.647933 -0.029917 -0.010128
v -0.647933 0.024648 -0.014011
v -0.597342 0.076388 -0.008876
v -0.597342 0.025043 -0.014011
v -0.527566 0.065613 -0.008876
v -0.527566 0.025161 -0.014011
v -0.772205 0.078504 0.000000
v -0.799099 0.079085 0.000000
v -0.527566 0.090691 0.000000
v -0.597342 0.108219 0.000000
v -0.844469 0.049209 0.000000
v -0.788492 0.000884 0.000000
v -0.527566 -0.012156 0.010128
v -0.597342 -0.022323 0.010128
v -0.647933 -0.029917 0.010128
v -0.597342 0.076388 0.008876
v -0.647933 0.024648 0.014011
v -0.597342 0.025043 0.014011
v -0.527566 0.065613 0.008876
v -0.527566 0.025161 0.014011
v -0.818589 0.074544 0.000000
v -0.698200 -0.077066 -0.000000
v -0.466128 0.078720 0.000000
v -0.466128 0.058051 -0.008876
v -0.466128 0.024709 -0.014011
v -0.466128 -0.006049 -0.010128
v -0.466128 -0.033539 -0.000000
v -0.466128 0.058051 0.008876
v -0.466128 0.024709 0.014011
v -0.466128 -0.006049 0.010128
vt 0.085582 0.374628
vt 0.088075 0.348140
vt 0.128494 0.357951
vt 0.118222 0.294487
vt 0.128494 0.294264
vt 0.070169 0.306712
vt 0.083542 0.291771
vt 0.045009 0.316220
vt 0.128494 0.357951
vt 0.061329 0.339312
vt 0.198265 0.524604
vt 0.198265 0.582531
vt 0.157819 0.615786
vt 0.157819 0.542261
vt 0.128494 0.640152
vt 0.128494 0.555450
vt 0.128494 0.460682
vt 0.157819 0.370820
vt 0.157819 0.459996
vt 0.198265 0.389535
vt 0.198265 0.459792
vt 0.056459 0.367145
vt 0.040869 0.366137
vt 0.198265 0.345978
vt 0.157819 0.315536
vt 0.014571 0.418025
vt 0.047018 0.501957
vt 0.198265 0.524604
vt 0.157819 0.542261
vt 0.128494 0.555450
vt 0.157819 0.370820
vt 0.128494 0.460682
vt 0.157819 0.459996
vt 0.198265 0.389535
vt 0.198265 0.459792
vt 0.029572 0.374024
vt 0.099356 0.637339
vt 0.233878 0.366770
vt 0.233878 0.402668
vt 0.233878 0.460576
vt 0.233878 0.513996
vt 0.233878 0.561741
vt 0.233878 0.402668
vt 0.233878 0.460576
vt 0.233878 0.513996
vn -0.1234 0.0348 -0.9917
vn -0.1094 0.1842 -0.9768
vn -0.0017 0.2353 -0.9719
vn 0.0000 -0.0000 1.0000
vn -0.1234 0.0348 0.9917
vn -0.1094 0.1842 0.9768
vn -0.0000 0.0000 -1.0000
vn 0.0542 -0.2582 -0.9646
vn 0.0463 -0.2168 -0.9751
vn -0.1296 0.0858 -0.9879
vn 0.0064 0.0925 -0.9957
vn 0.0085 0.1112 -0.9938
vn 0.0057 0.2641 -0.9645
vn 0.0060 -0.0760 -0.9971
vn 0.0067 -0.0913 -0.9958
vn 0.0603 0.2972 -0.9529
vn 0.0487 0.2506 -0.9669
vn -0.0848 -0.0836 -0.9929
vn 0.0542 -0.2582 0.9646
vn 0.0463 -0.2168 0.9751
vn 0.0264 0.3084 -0.9509
vn 0.0064 0.0925 0.9957
vn 0.0085 0.1112 0.9938
vn -0.0566 0.0859 -0.9947
vn 0.0060 -0.0760 0.9971
vn 0.0067 -0.0913 0.9958
vn 0.0603 0.2972 0.9529
vn 0.0487 0.2506 0.9669
vn -0.0017 0.2353 0.9719
vn -0.0750 -0.1324 -0.9884
vn -0.1296 0.0858 0.9879
vn 0.0057 0.2641 0.9645
vn -0.0848 -0.0836 0.9929
vn 0.0264 0.3084 0.9509
vn -0.0566 0.0859 0.9947
vn -0.0750 -0.1324 0.9884
vn 0.0574 0.3612 -0.9307
vn 0.0090 0.1378 -0.9904
vn 0.0052 -0.1133 -0.9935
vn 0.0464 -0.3155 -0.9478
vn 0.0574 0.3612 0.9307
vn 0.0090 0.1378 0.9904
vn 0.0052 -0.1133 0.9935
vn 0.0464 -0.3155 0.9478
vn 1.0000 0.0000 0.0000
usemtl fish_NONE
s 1
f 1/1/1 2/2/1 3/3/1
f 4/4/2 3/3/2 2/2/2
f 4/4/3 5/5/3 3/3/3
f 6/6/4 2/2/4 7/7/4
f 4/4/4 7/7/4 2/2/4
f 2/2/4 8/8/4 1/1/4
f 1/1/5 9/9/5 2/2/5
f 4/4/6 2/2/6 9/9/6
f 1/1/7 8/8/7 10/10/7
usemtl fish
f 11/11/8 12/12/8 13/13/8 14/14/8
f 14/14/9 13/13/9 15/15/9 16/16/9
f 3/3/10 17/17/10 1/1/10
f 18/18/11 19/19/11 17/17/11 3/3/11
f 20/20/12 21/21/12 19/19/12 18/18/12
f 22/22/13 17/17/13 23/23/13
f 19/19/14 14/14/14 16/16/14 17/17/14
f 21/21/15 11/11/15 14/14/15 19/19/15
f 24/24/16 20/20/16 18/18/16 25/25/16
f 25/25/17 18/18/17 3/3/17 5/5/17
f 26/26/18 17/17/18 16/16/18 27/27/18
f 28/28/19 29/29/19 13/13/19 12/12/19
f 29/29/20 30/30/20 15/15/20 13/13/20
f 22/22/21 1/1/21 17/17/21
f 31/31/22 9/9/22 32/32/22 33/33/22
f 34/34/23 31/31/23 33/33/23 35/35/23
f 36/36/24 23/23/24 17/17/24 26/26/24
f 33/33/25 32/32/25 30/30/25 29/29/25
f 35/35/26 33/33/26 29/29/26 28/28/26
f 24/24/27 25/25/27 31/31/27 34/34/27
f 25/25/28 5/5/28 9/9/28 31/31/28
f 5/5/29 4/4/29 9/9/29
f 37/37/30 27/27/30 16/16/30 15/15/30
f 9/9/31 1/1/31 32/32/31
f 22/22/32 23/23/32 32/32/32
f 26/26/33 27/27/33 30/30/33 32/32/33
f 22/22/34 32/32/34 1/1/34
f 36/36/35 26/26/35 32/32/35 23/23/35
f 37/37/36 15/15/36 30/30/36 27/27/36
f 20/20/37 24/24/37 38/38/37 39/39/37
f 20/20/38 39/39/38 40/40/38 21/21/38
f 11/11/39 21/21/39 40/40/39 41/41/39
f 12/12/40 11/11/40 41/41/40 42/42/40
f 34/34/41 43/43/41 38/38/41 24/24/41
f 34/34/42 35/35/42 44/44/42 43/43/42
f 28/28/43 45/45/43 44/44/43 35/35/43
f 12/12/44 42/42/44 45/45/44 28/28/44
f 42/42/45 41/41/45 45/45/45
f 45/45/45 41/41/45 40/40/45 44/44/45
f 40/40/45 39/39/45 43/43/45 44/44/45
f 39/39/45 38/38/45 43/43/45
